# xmcd
#
# Track frame offsets:
#	150
#	15727
#	33961
#	49269
#	62366
#	83239
#	94752
#	108823
#	119834
#	133450
#	146382
#	163061
#
# Disc length: 2368 seconds
# Revision: 0
# Processed by: cddbd v1.5.2PL0 Copyright (c) Steve Scherf et al.
# Submitted via: dBpowerAMP V12.0
#
DISCID=a2093e0c
DTITLE=Trudy Lee - Believe in You
DYEAR=2010
DGENRE=Country
TTITLE0=Believe in You
TTITLE1=Chosen Road
TTITLE2=For You
TTITLE3=You Sent Me An Angel
TTITLE4=You Give Me Wings
TTITLE5=Free
TTITLE6=Mumma
TTITLE7=Kookaburra
TTITLE8=Where Do We Go From Here
TTITLE9=Childhood Years
TTITLE10=Natures Gift
TTITLE11=Aussie Traveller
EXTD=
EXTT0=
EXTT1=
EXTT2=
EXTT3=
EXTT4=
EXTT5=
EXTT6=
EXTT7=
EXTT8=
EXTT9=
EXTT10=
EXTT11=
PLAYORDER=
